<svg xmlns="http://www.w3.org/2000/svg" viewBox="0 0 85.22 14.08"><title>divider</title><path d="M466.64,265.1l-1-1-.38-.36-2.3-2.27-.3-.39a5.59,5.59,0,0,0-.47.33l.25.35,3.82,3.8-.95.86-.39.36a2.28,2.28,0,0,1-.21.22c-1,1-2,2-3,3a6.43,6.43,0,0,1-6.12,1.8,5.65,5.65,0,0,1-2.17-.93c.26-.29.51-.56.74-.85s.26-.16.45-.06a5.07,5.07,0,0,0,6-.83c.61-.58,1.19-1.19,1.78-1.79s1-1.05,1.52-1.56l.4-.38-2.8-2.78-.36-.3-1.07-.87,0,0h0l-.48-.4h0l-.08,0a5.09,5.09,0,0,0-6.09.88c-.17.16-.33.32-.49.49h0l-1.16,1.17c-.51.51-1,1-1.47,1.5l-1-1,3.13-3.15.37-.35h0l.14-.14v0a6.41,6.41,0,0,1,4-1.48,6.49,6.49,0,0,1,3.81,1.12l.49.29,0,0,0,0,1,1,.48-.32-1-1-.45-.27h0a7.08,7.08,0,0,0-8.19,0v-.08l-.12,0a6.88,6.88,0,0,0-8,.1l0,0a7.08,7.08,0,0,0-8.18,0v-.06a.31.31,0,0,1-.12,0,6.91,6.91,0,0,0-8,.1l0,0a7.08,7.08,0,0,0-8.19,0v-.08a.34.34,0,0,1-.11,0,6.9,6.9,0,0,0-8,.1h0a7.08,7.08,0,0,0-8.16,0v0l0,0a7.07,7.07,0,0,0-8.11,0,7.09,7.09,0,0,0-8.23,0l-.45.3c-.27.29-.52.55-.74.82l-.17.22-.51.4c-.74.75-1.49,1.49-2.27,2.27l-.35.35-.91.9-.41.4.35.4,1,1,.38.35,2.3,2.28.3.38a3.88,3.88,0,0,0,.47-.32l-.25-.35-3.82-3.8.95-.86.39-.36a2.28,2.28,0,0,1,.21-.22c1-1,2-2,3-3a6.41,6.41,0,0,1,6.12-1.81,5.82,5.82,0,0,1,2.17.94c-.26.29-.51.56-.74.84s-.26.17-.45.07a5.06,5.06,0,0,0-6,.83c-.61.58-1.19,1.19-1.78,1.78s-1,1.05-1.52,1.57l-.4.37,2.8,2.79.36.29,1.07.88,0,0h0l.48.4h0l.08,0a5.09,5.09,0,0,0,6.09-.87c.17-.16.33-.33.49-.49h0l1.16-1.17,1.47-1.51,1,1-3.13,3.15-.37.35h0l-.14.14v0a6.34,6.34,0,0,1-4,1.47,6.41,6.41,0,0,1-3.81-1.11l-.49-.29,0,0,0,0-1-1-.48.31,1,1,.45.27h0a7.08,7.08,0,0,0,8.19,0v.08l.12,0a6.9,6.9,0,0,0,8-.11h0a7,7,0,0,0,7.72.26v0l.48-.27a7.07,7.07,0,0,0,8.12,0,7.07,7.07,0,0,0,8.23,0,7.07,7.07,0,0,0,8.12,0,7.09,7.09,0,0,0,8.21,0,7.07,7.07,0,0,0,8.11,0,7.09,7.09,0,0,0,8.23,0l.45-.3c.27-.29.52-.55.74-.82l.17-.22.51-.41,2.27-2.26.35-.35.91-.9.41-.4Zm-7.32-3.6.39.34v0h0l1,.92h0l.37.32c.8.81,1.61,1.61,2.38,2.37l-2.35,2.42-.37.46-.91.87v0l-.53.29a4.5,4.5,0,0,1-4.58,0l2.29-2.29.39-.39h0l.9-.92,0,0v0l.39-.42-.37-.35h0l-1-1-.39-.4-2.3-2.28A4.49,4.49,0,0,1,459.32,261.5Zm-6.38,1.63,2.39,2.38-2.27,2.32h0l0,0-2.38-2.37Zm-.28,5.17-.92.88-6.58-6.52.93-.88Zm-1.37,1.13a4.49,4.49,0,0,1-4.65.05l2.34-2.33c.37.38.75.77,1.14,1.15S450.89,269.05,451.29,269.43Zm-14.35-6.73.94-.89,6.57,6.53-.94.89Zm6.07,6.82a4.5,4.5,0,0,1-4.58,0l2.3-2.28Zm-14.18-6.85.93-.88,6.57,6.53-.93.87Zm6.12,6.78a4.51,4.51,0,0,1-4.65,0l2.34-2.33c.38.38.76.77,1.15,1.15Zm-14.34-6.73.93-.9,6.58,6.53-.94.89Zm6.07,6.81a4.5,4.5,0,0,1-4.58,0l2.29-2.28Zm-14.19-6.87c.3-.29.63-.59.92-.88l6.57,6.53-.92.88Zm6.12,6.78a4.47,4.47,0,0,1-4.65,0l2.34-2.33,1.14,1.16Zm-8.32-7.93L408,263.8l-2.28-2.27A4.52,4.52,0,0,1,410.29,261.51Zm-4.5,8,2.25-2.28,2.28,2.26A4.5,4.5,0,0,1,405.79,269.55Zm.51-4L404,267.9V268c-.81-.79-1.61-1.59-2.37-2.35l2.34-2.42Zm4.56,3.69-6.55-6.5.92-.87,6.54,6.5Zm-1.08-3.68,1.9-1.93v-.06l.43-.45,2.39,2.37-2.35,2.42Zm4.15-4.05a4.49,4.49,0,0,1,4.59,0l-2.28,2.3Zm4,4,2.29-2.36,2.39,2.38-2.27,2.32v0l0,0Zm4.11-4a4.48,4.48,0,0,1,4.56,0l-2.26,2.29Zm4,4,2.36-2.42,2.38,2.37-2.35,2.42Zm4.18-4a4.49,4.49,0,0,1,4.59,0l-2.29,2.3Zm4,4,2.29-2.36,2.39,2.37-2.31,2.35Zm4.11-4a4.48,4.48,0,0,1,4.56,0c-.77.77-1.53,1.55-2.26,2.29Zm4,4,2.36-2.42,2.38,2.37-2.34,2.42Zm6.49-1.75-2.31-2.28a4.49,4.49,0,0,1,4.59,0Zm1.88-4.5a5.54,5.54,0,0,1,1.75.83l-.93,1a5.21,5.21,0,0,0-6.63,1c-.46.51-1,1-1.45,1.48l-1.46,1.51-1-1c1.13-1.15,2.23-2.39,3.45-3.5A6.28,6.28,0,0,1,450.8,259.26Zm-14.21,1.23a6.5,6.5,0,0,1,7.77-.35c-.28.3-.55.56-.8.85s-.23.14-.39.05a5.09,5.09,0,0,0-6.1.88l-.49.48v0l-1.14,1.16L434,265.1l-1-1,3.13-3.15c.12-.12.24-.24.37-.35h0Zm-2.13-1.22a5.34,5.34,0,0,1,1.75.83l-.92,1a5.21,5.21,0,0,0-6.63,1c-.46.51-1,1-1.46,1.48l-1.45,1.52-1-1c1.13-1.16,2.24-2.4,3.45-3.51A6.29,6.29,0,0,1,434.46,259.27Zm-14.21,1.21v0a6.52,6.52,0,0,1,7.78-.35c-.28.3-.55.56-.8.85s-.23.14-.4.05a5.08,5.08,0,0,0-6.09.88l-.49.48v0l-1.16,1.17-1.47,1.5-1-1c1-1,2.09-2.09,3.13-3.15.12-.13.25-.24.37-.35h0Zm-2.13-1.21a5.24,5.24,0,0,1,1.75.83l-.93,1a5.19,5.19,0,0,0-6.62,1.05c-.47.51-1,1-1.46,1.48s-1,1-1.45,1.51l-1-1,0-.05.18-.18c1-1,2-2.06,3-3v0l.2-.2A6.26,6.26,0,0,1,418.12,259.27Zm-8.61,0c.2,0,.39.09.59.15s.4.14.6.23l.25.13c.18.09.34.19.51.29l.22.14v0h0c-.28.29-.54.56-.78.84a.27.27,0,0,1-.4.05,5.09,5.09,0,0,0-6.1.88l-.43.43v.07l-1.25,1.25-1.52,1.56-1-1,.2-.22c1-1,2-2,3-3A6.42,6.42,0,0,1,409.51,259.22Zm-9.73,4.69c-.37-.38-.75-.77-1.14-1.15l-1.17-1.14a4.51,4.51,0,0,1,4.65,0Zm-10.34,5.64-.39-.33v0h0l-1-.92h0l-.37-.33-2.38-2.36,2.35-2.42.37-.46.92-.87v0l.53-.28a4.5,4.5,0,0,1,4.58,0c-.76.77-1.54,1.53-2.29,2.29l-.39.39h0l-.9.92,0,0v0l-.4.42.37.35h0l1,1,.39.4,2.3,2.28A4.46,4.46,0,0,1,389.44,269.55Zm5.1-.31-3.78-3.75.93-.9h0l.39-.39.06-.08c1.1-1.11,2.17-2.25,3.31-3.32l.25-.22a6.33,6.33,0,0,1,5.29-1.4,6.13,6.13,0,0,1,2.49,1c-.27.3-.52.55-.75.83s-.28.16-.48.06a4.94,4.94,0,0,0-3.35-.52,5.17,5.17,0,0,0-2.8,1.52l-.4.41v0l-.2.19c-.82.82-1.63,1.65-2.44,2.47l-.39.38,2.8,2.79Zm1.28-1.31-2.39-2.39,2.27-2.31h0l0,0,2.38,2.37Zm.28-5.18.93-.87,6.57,6.52-.93.88Zm3.74,4.55q1.16,1.13,2.31,2.28a4.49,4.49,0,0,1-4.59,0ZM398,271.8a5.77,5.77,0,0,1-1.75-.83l.93-1a5.21,5.21,0,0,0,6.63-1c.46-.52,1-1,1.45-1.48s1-1,1.46-1.52l1,1,0,0-.19.2c-1,1.05-2.07,2.13-3.15,3.15l-.32.29v0A6.3,6.3,0,0,1,398,271.8Zm8.61.05a3.83,3.83,0,0,1-.58-.16,3.92,3.92,0,0,1-.6-.23l-.26-.13c-.17-.08-.34-.18-.51-.28l-.21-.14h0c.28-.29.54-.55.79-.83s.23-.14.4-.05a5.09,5.09,0,0,0,6.08-.87v-.06c.57-.56,1.13-1.13,1.69-1.7l1.52-1.56,1,1-.21.22c-1,1-2,2-3,3A6.39,6.39,0,0,1,406.57,271.85Zm13.82-1.37a6.35,6.35,0,0,1-5.3,1.39,5.77,5.77,0,0,1-2.48-1c.26-.29.51-.55.74-.82s.28-.17.48-.06a5.05,5.05,0,0,0,3.35.52A5.17,5.17,0,0,0,420,269l.41-.42h0l.19-.19,2.44-2.47,1,1s0,.05-.07.08c-1.1,1.11-2.17,2.25-3.31,3.32Zm2.53,1.37a5.74,5.74,0,0,1-2.17-.94c.26-.29.51-.55.74-.84s.26-.16.45-.06a5.09,5.09,0,0,0,6-.83c.6-.59,1.19-1.19,1.77-1.79s1-1.05,1.53-1.56l1,1-.2.22c-1,1-2,2-3,3A6.42,6.42,0,0,1,422.92,271.85Zm13.68-1.28v0a6.34,6.34,0,0,1-5.17,1.29,6.09,6.09,0,0,1-2.48-1c.27-.3.52-.55.74-.83s.28-.16.48-.06a4.94,4.94,0,0,0,3.35.52,5.17,5.17,0,0,0,2.8-1.52l.41-.41v0l.18-.19,2.44-2.46,1,1-.06.08c-1.11,1.11-2.18,2.25-3.32,3.32Zm2.65,1.27a6,6,0,0,1-2.17-.94c.26-.29.52-.56.75-.84s.26-.16.45-.06a5.08,5.08,0,0,0,6-.83c.61-.59,1.19-1.19,1.78-1.79l1.52-1.56,1,1-.21.22c-1,1-2,2-3,3A6.41,6.41,0,0,1,439.25,271.84Zm13.81-1.37a6.36,6.36,0,0,1-5.29,1.4,6.13,6.13,0,0,1-2.49-1c.27-.3.52-.55.75-.83s.28-.16.48-.06a4.94,4.94,0,0,0,3.35.52,5.17,5.17,0,0,0,2.8-1.52c.13-.14.27-.28.41-.41v0l.19-.19,2.44-2.47.39-.39-2.8-2.78.93-.9,3.78,3.75-.93.91h0l-.39.39-.06.08c-1.1,1.11-2.17,2.25-3.31,3.32Z" transform="translate(-381.77 -258.49)"/></svg>
